<svg xmlns="http://www.w3.org/2000/svg" viewBox="0 0 1200 675" role="img" aria-label="APR70 / DEFAULT / 16:9 placeholder" preserveAspectRatio="xMidYMid slice">
  <rect width="1200" height="675" fill="#16181C"/>
  <rect x="0" y="0" width="1200" height="28" fill="#C8C8C8" opacity="0.85"/><circle cx="28.0" cy="14.0" r="8" fill="#16181C"/><circle cx="84.0" cy="14.0" r="8" fill="#16181C"/><circle cx="140.0" cy="14.0" r="8" fill="#16181C"/><circle cx="196.0" cy="14.0" r="8" fill="#16181C"/><circle cx="252.0" cy="14.0" r="8" fill="#16181C"/><circle cx="308.0" cy="14.0" r="8" fill="#16181C"/><circle cx="364.0" cy="14.0" r="8" fill="#16181C"/><circle cx="420.0" cy="14.0" r="8" fill="#16181C"/><circle cx="476.0" cy="14.0" r="8" fill="#16181C"/><circle cx="532.0" cy="14.0" r="8" fill="#16181C"/><circle cx="588.0" cy="14.0" r="8" fill="#16181C"/><circle cx="644.0" cy="14.0" r="8" fill="#16181C"/><circle cx="700.0" cy="14.0" r="8" fill="#16181C"/><circle cx="756.0" cy="14.0" r="8" fill="#16181C"/><circle cx="812.0" cy="14.0" r="8" fill="#16181C"/><circle cx="868.0" cy="14.0" r="8" fill="#16181C"/><circle cx="924.0" cy="14.0" r="8" fill="#16181C"/><circle cx="980.0" cy="14.0" r="8" fill="#16181C"/><circle cx="1036.0" cy="14.0" r="8" fill="#16181C"/><circle cx="1092.0" cy="14.0" r="8" fill="#16181C"/><circle cx="1148.0" cy="14.0" r="8" fill="#16181C"/>
  <rect x="0" y="647" width="1200" height="28" fill="#C8C8C8" opacity="0.85"/><circle cx="28.0" cy="661.0" r="8" fill="#16181C"/><circle cx="84.0" cy="661.0" r="8" fill="#16181C"/><circle cx="140.0" cy="661.0" r="8" fill="#16181C"/><circle cx="196.0" cy="661.0" r="8" fill="#16181C"/><circle cx="252.0" cy="661.0" r="8" fill="#16181C"/><circle cx="308.0" cy="661.0" r="8" fill="#16181C"/><circle cx="364.0" cy="661.0" r="8" fill="#16181C"/><circle cx="420.0" cy="661.0" r="8" fill="#16181C"/><circle cx="476.0" cy="661.0" r="8" fill="#16181C"/><circle cx="532.0" cy="661.0" r="8" fill="#16181C"/><circle cx="588.0" cy="661.0" r="8" fill="#16181C"/><circle cx="644.0" cy="661.0" r="8" fill="#16181C"/><circle cx="700.0" cy="661.0" r="8" fill="#16181C"/><circle cx="756.0" cy="661.0" r="8" fill="#16181C"/><circle cx="812.0" cy="661.0" r="8" fill="#16181C"/><circle cx="868.0" cy="661.0" r="8" fill="#16181C"/><circle cx="924.0" cy="661.0" r="8" fill="#16181C"/><circle cx="980.0" cy="661.0" r="8" fill="#16181C"/><circle cx="1036.0" cy="661.0" r="8" fill="#16181C"/><circle cx="1092.0" cy="661.0" r="8" fill="#16181C"/><circle cx="1148.0" cy="661.0" r="8" fill="#16181C"/>
  <g font-family="'Share Tech Mono', ui-monospace, SFMono-Regular, Menlo, monospace" fill="#8A8F98" text-anchor="middle">
    <line x1="478.5" y1="296.8" x2="721.5" y2="296.8" stroke="#8A8F98" stroke-width="1" opacity="0.4"/>
    <text x="600" y="341.2" font-size="74" font-weight="400" letter-spacing="6" fill="#C8C8C8">APR70</text>
    <line x1="478.5" y1="378.2" x2="721.5" y2="378.2" stroke="#8A8F98" stroke-width="1" opacity="0.4"/>
    <text x="600" y="426.3" font-size="26" letter-spacing="3" opacity="0.75">DEFAULT · 16:9</text>
    <text x="600" y="463.3" font-size="18" letter-spacing="2" opacity="0.5">PLACEHOLDER</text>
  </g>
</svg>