<svg viewBox="0 0 320 100" xmlns="http://www.w3.org/2000/svg">
  <rect x="12" y="10" width="8" height="5.6" rx="1" fill="#000000"/>
  <rect x="12" y="30" width="8" height="5.6" rx="1" fill="#000000"/>
  <rect x="12" y="50" width="8" height="5.6" rx="1" fill="#000000"/>
  <rect x="12" y="70" width="8" height="5.6" rx="1" fill="#000000"/>
  <rect x="12" y="90" width="8" height="5.6" rx="1" fill="#000000"/>
  <rect x="300" y="10" width="8" height="5.6" rx="1" fill="#000000"/>
  <rect x="300" y="30" width="8" height="5.6" rx="1" fill="#000000"/>
  <rect x="300" y="50" width="8" height="5.6" rx="1" fill="#000000"/>
  <rect x="300" y="70" width="8" height="5.6" rx="1" fill="#000000"/>
  <rect x="300" y="90" width="8" height="5.6" rx="1" fill="#000000"/>
  <g fill="#000000"><path d="M82.07278955078124 52.8535791015625H96.13278955078124L95.70118432617187 47.971752685546875H82.50439477539062ZM89.02678955078125 41.182105468749995 92.78394213867188 49.796534301757816 92.54483947753906 51.43022119140625 95.75967102050781 58.0H103.02971069335936L89.02678955078125 29.71580261230469L75.02386840820311 58.0H82.29390808105468L85.58473962402343 51.17860803222656L85.29841064453124 49.738986938476565Z"/><path d="M112.64386840820312 31.400000000000002V58.0H119.06164489746092V31.400000000000002ZM116.67311853027343 36.68325012207031H121.87098693847655Q123.81743164062499 36.68325012207031 124.92474871826171 37.55224615478515Q126.03206579589843 38.4212421875 126.03206579589843 40.088394775390626Q126.03206579589843 41.74116052246094 124.92474871826171 42.61734997558594Q123.81743164062499 43.49353942871094 121.87098693847655 43.49353942871094H116.67311853027343V48.77678955078125H121.87098693847655Q125.28144750976561 48.77678955078125 127.57419226074217 47.72514349365234Q129.86693701171873 46.673497436523434 131.04032385253905 44.71501190185547Q132.21371069335936 42.756526367187504 132.21371069335936 40.088394775390626Q132.21371069335936 37.38226318359375 131.04032385253905 35.442777648925784Q129.86693701171873 33.50329211425782 127.57419226074217 32.45164605712891Q125.28144750976561 31.400000000000002 121.87098693847655 31.400000000000002H116.67311853027343Z"/><path d="M149.7969211425781 45.95259216308594 157.26399999999998 58.0H164.7959738769531L156.4766318359375 45.95259216308594ZM143.15786840820311 31.400000000000002V58.0H149.57564489746093V31.400000000000002ZM147.1871185302734 36.84744750976563H152.38498693847654Q153.69356323242187 36.84744750976563 154.61494610595702 37.25473565673828Q155.53632897949217 37.66202380371094 156.0411973876953 38.436019836425785Q156.54606579589841 39.210015869140626 156.54606579589841 40.3245263671875Q156.54606579589841 41.41542370605469 156.0411973876953 42.201226318359375Q155.53632897949217 42.98702893066407 154.61494610595702 43.39431707763672Q153.69356323242187 43.801605224609375 152.38498693847654 43.801605224609375H147.1871185302734V48.77678955078125H152.8572501220703Q156.26771069335936 48.77678955078125 158.56045544433593 47.677917175292976Q160.8532001953125 46.57904479980469 162.0265870361328 44.608752685546875Q163.1999738769531 42.63846057128906 163.1999738769531 40.088394775390626Q163.1999738769531 37.50032897949219 162.0265870361328 35.54903686523437Q160.8532001953125 33.59774475097656 158.56045544433593 32.49887237548828Q156.26771069335936 31.400000000000002 152.8572501220703 31.400000000000002H147.1871185302734Z"/><path d="M191.15999999999997 37.391644897460935H203.4427578125L193.0776710205078 58.0H200.00164489746092L212.84971069335936 31.400000000000002H191.15999999999997Z"/><path d="M227.4756448974609 44.7Q227.4756448974609 42.83065002441406 227.8253856811523 41.29868688964844Q228.17512646484371 39.76672375488281 228.82480145263668 38.67230798339844Q229.47447644042967 37.57789221191406 230.36708563232418 36.99960406494141Q231.2596948242187 36.421315917968755 232.35465795898435 36.421315917968755Q233.46400793457028 36.421315917968755 234.34942370605467 36.99960406494141Q235.23483947753903 37.57789221191406 235.88451446533202 38.67230798339844Q236.53418945312498 39.76672375488281 236.88393023681638 41.29868688964844Q237.23367102050778 42.83065002441406 237.23367102050778 44.7Q237.23367102050778 46.569349975585936 236.88393023681638 48.10131311035156Q236.53418945312498 49.63327624511719 235.88451446533202 50.727692016601566Q235.23483947753903 51.82210778808594 234.34942370605467 52.4003959350586Q233.46400793457028 52.97868408203125 232.35465795898435 52.97868408203125Q231.2596948242187 52.97868408203125 230.36708563232418 52.4003959350586Q229.47447644042967 51.82210778808594 228.82480145263668 50.727692016601566Q228.17512646484371 49.63327624511719 227.8253856811523 48.10131311035156Q227.4756448974609 46.569349975585936 227.4756448974609 44.7ZM221.29399999999998 44.7Q221.29399999999998 49.04419738769531 222.6896789550781 52.12219738769531Q224.08535791015623 55.20019738769531 226.57990924072263 56.849131591796876Q229.07446057128902 58.49806579589844 232.35465795898435 58.49806579589844Q235.7529211425781 58.49806579589844 238.23566589355465 56.849131591796876Q240.71841064453122 55.20019738769531 242.06686328124997 52.12219738769531Q243.4153159179687 49.04419738769531 243.4153159179687 44.7Q243.4153159179687 40.355802612304686 242.06686328124997 37.27780261230468Q240.71841064453122 34.19980261230469 238.23566589355465 32.55086840820313Q235.7529211425781 30.901934204101565 232.35465795898435 30.901934204101565Q229.07446057128902 30.901934204101565 226.57990924072263 32.55086840820313Q224.08535791015623 34.19980261230469 222.6896789550781 37.27780261230468Q221.29399999999998 40.355802612304686 221.29399999999998 44.7Z"/></g>
</svg>