<svg viewBox="0 0 480 160" width="480" height="160" xmlns="http://www.w3.org/2000/svg">
    <defs>
    
</defs>
    <rect width="480" height="160" fill="#000000"></rect>
    <rect x="18" y="22.0" width="8.4" height="5.94" rx="1.5" fill="#0077B6"></rect>
    <rect x="452" y="22.0" width="8.4" height="5.94" rx="1.5" fill="#0077B6"></rect>
    <rect x="18" y="36.25" width="8.4" height="5.94" rx="1.5" fill="#0077B6"></rect>
    <rect x="452" y="36.25" width="8.4" height="5.94" rx="1.5" fill="#0077B6"></rect>
    <rect x="18" y="50.5" width="8.4" height="5.94" rx="1.5" fill="#0077B6"></rect>
    <rect x="452" y="50.5" width="8.4" height="5.94" rx="1.5" fill="#0077B6"></rect>
    <rect x="18" y="64.75" width="8.4" height="5.94" rx="1.5" fill="#0077B6"></rect>
    <rect x="452" y="64.75" width="8.4" height="5.94" rx="1.5" fill="#0077B6"></rect>
    <rect x="18" y="79.0" width="8.4" height="5.94" rx="1.5" fill="#0077B6"></rect>
    <rect x="452" y="79.0" width="8.4" height="5.94" rx="1.5" fill="#0077B6"></rect>
    <rect x="18" y="93.25" width="8.4" height="5.94" rx="1.5" fill="#0077B6"></rect>
    <rect x="452" y="93.25" width="8.4" height="5.94" rx="1.5" fill="#0077B6"></rect>
    <rect x="18" y="107.5" width="8.4" height="5.94" rx="1.5" fill="#0077B6"></rect>
    <rect x="452" y="107.5" width="8.4" height="5.94" rx="1.5" fill="#0077B6"></rect>
    <text x="240" y="82" font-family="Futura, Century Gothic, sans-serif" font-size="56" font-weight="700" fill="#FFFFFF" text-anchor="middle" letter-spacing="0.18em">APR 70</text>
    <text x="240" y="122" font-family="Futura, Century Gothic, sans-serif" font-size="18" font-weight="700" fill="#FFFFFF" text-anchor="middle" letter-spacing="0.5em">PICTURES</text>
</svg>